# xmcd
#
# Track frame offsets:
#	150
#	20317
#	45020
#	64380
#	86079
#	110637
#	132550
#	161552
#	186565
#	231557
#	248070
#
# Disc length: 3782 seconds
#
# Revision: 0
# Processed by: cddbd v1.5.2PL0 Copyright (c) Steve Scherf et al.
# Submitted via: EasyCDDAExtractor 2010.6.0.0
#
DISCID=990ec40b
DTITLE=CMX - Dinosaurus Stereophonicus CD 2
DYEAR=2000
DGENRE=
TTITLE0=Jatkuu niinkuin sade
TTITLE1=Tuonen lintu
TTITLE2=Luuhamara
TTITLE3=Tämän runon tahtoisin unohtaa
TTITLE4=Kultaiset portaat
TTITLE5=Meidän syntimme
TTITLE6=Myrskyn ratsut
TTITLE7=Karsikkopuu
TTITLE8=Olkoon täysi sinun maljasi
TTITLE9=Suurta yötä päin
TTITLE10=Tähdet sylissään
EXTD=
EXTT0=
EXTT1=
EXTT2=
EXTT3=
EXTT4=
EXTT5=
EXTT6=
EXTT7=
EXTT8=
EXTT9=
EXTT10=
PLAYORDER=
